M48
; DRILL file {KiCad 5.1.7-a382d34a8~87~ubuntu16.04.1} date Wed Nov  4 11:27:49 2020
; FORMAT={-:-/ absolute / metric / decimal}
; #@! TF.CreationDate,2020-11-04T11:27:49+01:00
; #@! TF.GenerationSoftware,Kicad,Pcbnew,5.1.7-a382d34a8~87~ubuntu16.04.1
; #@! TF.FileFunction,Plated,1,2,PTH
FMAT,2
METRIC
T1C0.400
T2C1.000
T3C1.016
T4C1.600
T5C3.048
%
G90
G05
T1
X111.748Y-85.115
X111.998Y-73.865
X111.998Y-96.615
X111.998Y-110.365
X111.998Y-125.365
X118.148Y-125.515
X122.798Y-125.615
X124.148Y-73.765
X127.048Y-125.665
X128.448Y-73.815
X130.798Y-97.615
X130.798Y-117.315
X131.748Y-102.865
X132.198Y-103.915
X132.198Y-118.365
X133.748Y-100.365
X136.348Y-100.365
X137.748Y-98.115
X137.748Y-102.615
X137.998Y-95.515
X139.698Y-99.915
X142.948Y-98.715
X142.948Y-101.115
X144.498Y-96.815
X147.748Y-94.165
X147.748Y-95.515
X147.748Y-103.465
X150.248Y-97.915
X152.098Y-102.215
X152.248Y-98.765
X153.798Y-101.065
X153.998Y-99.465
X154.498Y-73.865
X158.998Y-125.615
X175.198Y-73.865
X175.998Y-125.365
X176.298Y-75.065
X178.748Y-102.865
X178.798Y-88.765
X178.848Y-92.815
X178.848Y-116.715
X178.848Y-120.865
T2
X175.998Y-105.865
X175.998Y-108.405
T3
X161.798Y-123.825
X164.338Y-123.825
X166.878Y-123.825
X169.418Y-123.825
X171.958Y-123.825
X174.498Y-123.825
X138.938Y-123.825
X141.478Y-123.825
X144.018Y-123.825
X146.558Y-123.825
X149.098Y-123.825
X151.638Y-123.825
X154.178Y-123.825
X156.718Y-123.825
X129.794Y-75.565
X132.334Y-75.565
X134.874Y-75.565
X137.414Y-75.565
X139.954Y-75.565
X142.494Y-75.565
X145.034Y-75.565
X147.574Y-75.565
X150.114Y-75.565
X152.654Y-75.565
X156.718Y-75.565
X159.258Y-75.565
X161.798Y-75.565
X164.338Y-75.565
X166.878Y-75.565
X169.418Y-75.565
X171.958Y-75.565
X174.498Y-75.565
T4
X146.298Y-89.215
T5
X124.968Y-123.825
X177.038Y-90.805
X126.238Y-75.565
X177.038Y-118.745
T0
M30
